# File created by Blade
# Date/Time:  Thu Sep 25 14:26:36 2014
# Frame Rate: 120.000 fps
#------------------------------------------------------
:FULLY-SPECIFIED
:DEGREES
506
root 13.907864 32.452255 -0.643868 -42.712203 87.835815 -39.162062
Spine -11.277686 9.777638 -0.648767
Head 17.417279 -10.616747 8.650022
LeftShoulder -13.127907 21.492675 13.956235
LeftArm 29.156839 9.209185 -54.466438
LeftForeArm 3.214953 -0.000000 22.652655
LeftHand -24.334746 -0.000000 -0.173155
LeftHandThumb1 -26.253704 0.000000 33.147579
RightShoulder -19.011629 14.152753 -25.876580
RightArm -1.167946 -17.766560 67.701931
RightForeArm -20.471615 -0.000000 18.880225
RightHand -5.082361 -0.000000 -0.079221
RightHandThumb1 -24.326973 -0.000000 -32.862282
LeftUpLeg 1.744718 4.689376 10.726493
LeftLeg 12.415350 -0.000000 -0.000000
LeftFoot -19.284779 9.400651 -25.988180
LeftToeBase 6.376478 -0.000000 -0.000000
RightUpLeg 0.117422 -10.825021 -4.431260
RightLeg 15.994229 -0.000000 -0.000000
RightFoot -16.464375 -7.573159 -2.682055
RightToeBase 1.600057 -0.000000 -0.000000
507
root 13.924835 32.438616 -0.549110 -45.847232 87.808568 -42.264610
Spine -11.329570 9.810123 -0.441324
Head 17.262843 -10.465591 8.212024
LeftShoulder -13.159294 21.469754 13.742589
LeftArm 29.393169 9.026424 -54.170471
LeftForeArm 2.954166 -0.000000 22.693767
LeftHand -24.380546 -0.000000 0.174971
LeftHandThumb1 -26.253704 0.000000 33.147579
RightShoulder -18.880861 14.235860 -26.060692
RightArm -1.203018 -17.684096 67.616644
RightForeArm -20.342452 -0.000000 18.805592
RightHand -4.891428 -0.000000 -0.113153
RightHandThumb1 -24.326973 -0.000000 -32.862282
LeftUpLeg 1.435177 4.796784 11.067821
LeftLeg 13.179192 -0.000000 -0.000000
LeftFoot -19.337082 8.863001 -26.482924
LeftToeBase 6.127966 -0.000000 -0.000000
RightUpLeg 0.223702 -10.721312 -4.195732
RightLeg 15.936537 -0.000000 -0.000000
RightFoot -16.532049 -7.527051 -2.711908
RightToeBase 1.345219 -0.000000 -0.000000
508
root 13.940906 32.426774 -0.453306 -49.314502 87.768955 -45.704108
Spine -11.380759 9.856320 -0.216138
Head 17.087555 -10.353410 7.745299
LeftShoulder -13.173888 21.413784 13.575747
LeftArm 29.588641 8.749865 -53.999521
LeftForeArm 3.010993 -0.000000 22.714718
LeftHand -24.343066 -0.000000 0.171534
LeftHandThumb1 -26.253704 0.000000 33.147579
RightShoulder -18.754634 14.233418 -26.237705
RightArm -1.178003 -17.561802 67.493195
RightForeArm -20.170111 0.000000 18.818754
RightHand -5.009383 -0.000000 -0.183882
RightHandThumb1 -24.326973 -0.000000 -32.862282
LeftUpLeg 1.103743 4.966880 11.440675
LeftLeg 13.978910 -0.000000 -0.000000
LeftFoot -19.316533 8.251776 -26.930521
LeftToeBase 5.838284 -0.000000 -0.000000
RightUpLeg 0.310662 -10.543630 -3.939630
RightLeg 15.898580 -0.000000 -0.000000
RightFoot -16.601969 -7.523888 -2.701356
RightToeBase 1.671906 -0.000000 -0.000000
509
root 13.953310 32.415542 -0.358842 -53.073869 87.766784 -49.452892
Spine -11.433479 9.865886 -0.026620
Head 16.915915 -10.211398 7.365952
LeftShoulder -13.175309 21.338018 13.440430
LeftArm 29.727253 8.481220 -53.862047
LeftForeArm 2.992160 -0.000000 22.787674
LeftHand -24.271680 0.000000 0.378681
LeftHandThumb1 -26.253704 0.000000 33.147579
RightShoulder -18.620645 14.180647 -26.438919
RightArm -1.125386 -17.240786 67.411111
RightForeArm -19.906131 -0.000000 18.875111
RightHand -5.147764 -0.000000 0.216920
RightHandThumb1 -24.326973 -0.000000 -32.862282
LeftUpLeg 0.692995 5.135900 11.801192
LeftLeg 14.884751 -0.000000 -0.000000
LeftFoot -19.295534 7.540553 -27.548791
LeftToeBase 5.716096 -0.000000 -0.000000
RightUpLeg 0.326540 -10.231195 -3.680353
RightLeg 15.994805 -0.000000 -0.000000
RightFoot -16.688935 -7.653693 -2.594264
RightToeBase 1.494398 -0.000000 -0.000000
510
root 13.956670 32.405678 -0.265002 -57.023707 87.726247 -53.431083
Spine -11.510450 9.873033 0.201884
Head 16.744511 -10.060890 6.973936
LeftShoulder -13.174568 21.337667 13.314910
LeftArm 29.914754 8.247006 -53.755463
LeftForeArm 2.756302 -0.000000 22.851715
LeftHand -24.295343 -0.000000 0.719703
LeftHandThumb1 -26.253704 0.000000 33.147579
RightShoulder -18.522132 14.272269 -26.550637
RightArm -1.063252 -17.280381 67.144520
RightForeArm -19.842731 -0.000000 18.844660
RightHand -4.961153 -0.000000 0.227324
RightHandThumb1 -24.326973 -0.000000 -32.862282
LeftUpLeg 0.209457 5.386915 12.197593
LeftLeg 15.809968 -0.000000 -0.000000
LeftFoot -19.254046 6.726311 -28.270601
LeftToeBase 5.727544 -0.000000 -0.000000
RightUpLeg 0.264121 -9.906816 -3.372259
RightLeg 16.092491 -0.000000 -0.000000
RightFoot -16.743930 -7.870349 -2.523571
RightToeBase 1.093706 -0.000000 -0.000000
511
root 13.958034 32.397491 -0.170355 -60.747598 87.680049 -57.200483
Spine -11.605453 9.875152 0.398618
Head 16.571268 -9.929507 6.661600
LeftShoulder -13.158333 21.150102 13.277977
LeftArm 29.913550 7.987071 -53.776792
LeftForeArm 2.885264 0.000000 22.912567
LeftHand -24.332468 -0.000000 0.582289
LeftHandThumb1 -26.253704 0.000000 33.147579
RightShoulder -18.420325 14.308839 -26.702848
RightArm -0.980646 -17.138864 66.982974
RightForeArm -19.678706 -0.000000 18.844117
RightHand -4.834823 -0.000000 0.243466
RightHandThumb1 -24.326973 -0.000000 -32.862282
LeftUpLeg -0.307169 5.744447 12.615598
LeftLeg 16.741659 -0.000000 -0.000000
LeftFoot -19.066440 5.781365 -28.918425
LeftToeBase 5.715432 -0.000000 -0.000000
RightUpLeg 0.180431 -9.516526 -3.050306
RightLeg 16.183553 -0.000000 -0.000000
RightFoot -16.797873 -8.166744 -2.388615
RightToeBase 1.277593 -0.000000 -0.000000
512
root 13.958865 32.389330 -0.076411 -65.359931 87.658439 -61.840148
Spine -11.660602 9.821262 0.565212
Head 16.349599 -9.830344 6.407276
LeftShoulder -13.135995 21.026680 13.257257
LeftArm 29.958732 7.741133 -53.783822
LeftForeArm 2.806977 -0.000000 22.981300
LeftHand -24.307553 0.000000 0.867617
LeftHandThumb1 -26.253704 0.000000 33.147579
RightShoulder -18.355928 14.331904 -26.803984
RightArm -0.902699 -17.192871 66.757642
RightForeArm -19.439582 -0.000000 19.035451
RightHand -4.997306 0.000000 0.014671
RightHandThumb1 -24.326973 -0.000000 -32.862282
LeftUpLeg -0.824620 6.100686 13.029448
LeftLeg 17.705154 -0.000000 -0.000000
LeftFoot -18.972081 4.714679 -29.855458
LeftToeBase 6.246654 -0.000000 -0.000000
RightUpLeg 0.123713 -9.184387 -2.734693
RightLeg 16.302742 -0.000000 -0.000000
RightFoot -16.881265 -8.462686 -2.139966
RightToeBase 1.304020 -0.000000 -0.000000
513
root 13.956581 32.383372 0.015300 -70.840176 87.657556 -67.366063
Spine -11.722076 9.665776 0.687184
Head 16.127246 -9.677648 6.258249
LeftShoulder -13.168651 20.823020 13.292351
LeftArm 29.947639 7.510910 -53.875908
LeftForeArm 2.743723 -0.000000 23.022081
LeftHand -24.268117 0.000000 0.928585
LeftHandThumb1 -26.253704 0.000000 33.147579
RightShoulder -18.247551 14.459215 -26.891523
RightArm -0.851388 -17.036189 66.557543
RightForeArm -19.546021 -0.000000 19.107524
RightHand -4.962404 -0.000000 -0.014540
RightHandThumb1 -24.326973 -0.000000 -32.862282
LeftUpLeg -1.401278 6.409605 13.441011
LeftLeg 18.739274 -0.000000 -0.000000
LeftFoot -18.613840 3.567273 -30.605934
LeftToeBase 6.266156 -0.000000 -0.000000
RightUpLeg 0.047033 -8.960115 -2.437943
RightLeg 16.416971 -0.000000 -0.000000
RightFoot -16.928480 -8.802768 -2.095348
RightToeBase 1.004513 -0.000000 -0.000000
514
root 13.953815 32.378232 0.107213 -76.287212 87.652240 -72.859915
Spine -11.779129 9.557229 0.751252
Head 15.881425 -9.611780 6.170505
LeftShoulder -13.100200 20.607376 13.363095
LeftArm 29.869391 7.234401 -53.934462
LeftForeArm 2.796596 -0.000000 23.105440
LeftHand -24.181417 0.000000 0.611837
LeftHandThumb1 -26.253704 0.000000 33.147579
RightShoulder -18.189689 14.516782 -26.944278
RightArm -0.805627 -16.894243 66.364303
RightForeArm -19.424800 -0.000000 19.306491
RightHand -5.097717 -0.000000 -0.318182
RightHandThumb1 -24.326973 -0.000000 -32.862282
LeftUpLeg -1.977539 6.787000 13.858598
LeftLeg 19.778447 -0.000000 -0.000000
LeftFoot -18.204369 2.265637 -31.403155
LeftToeBase 6.533990 -0.000000 -0.000000
RightUpLeg -0.025986 -8.759244 -2.147680
RightLeg 16.521635 -0.000000 -0.000000
RightFoot -16.986885 -9.197054 -2.093622
RightToeBase 1.091662 -0.000000 -0.000000
